<?xml version="1.0" standalone="no"?>
<!DOCTYPE svg PUBLIC "-//W3C//DTD SVG 20010904//EN"
 "http://www.w3.org/TR/2001/REC-SVG-20010904/DTD/svg10.dtd">
<svg version="1.0" xmlns="http://www.w3.org/2000/svg"
 width="2000.000000pt" height="1500.000000pt" viewBox="0 0 2000.000000 1500.000000"
 preserveAspectRatio="xMidYMid meet">
<metadata>
Created by potrace 1.15, written by Peter Selinger 2001-2017
</metadata>
<g transform="translate(0.000000,1500.000000) scale(0.100000,-0.100000)"
fill="#000000" stroke="none">
<path d="M10085 13970 c-11 -5 -65 -28 -119 -51 -97 -40 -666 -293 -876 -389
-58 -26 -148 -67 -200 -90 -52 -24 -129 -58 -170 -77 -41 -19 -145 -67 -230
-105 -85 -38 -207 -94 -270 -123 -63 -29 -158 -72 -210 -95 -52 -24 -124 -56
-160 -73 -106 -49 -521 -238 -875 -399 -181 -82 -352 -160 -380 -173 -139 -64
-304 -140 -340 -155 -22 -10 -76 -35 -120 -55 -73 -34 -1284 -583 -1485 -674
-236 -106 -231 -103 -218 -118 6 -8 14 -10 17 -5 3 5 82 41 174 81 142 61 378
165 542 240 22 10 99 45 170 76 72 32 177 80 234 106 57 27 105 49 106 49 2 0
88 39 192 86 103 47 256 117 338 154 205 92 416 189 835 380 195 90 393 179
440 200 47 21 119 53 160 73 41 19 149 69 240 110 238 107 607 275 665 302 28
12 95 43 150 68 144 65 385 174 575 260 177 80 487 218 610 272 41 18 118 50
170 70 l95 38 50 -18 c45 -15 123 -48 230 -95 22 -10 103 -45 180 -78 149 -64
1240 -550 2105 -937 52 -23 248 -111 435 -195 187 -84 464 -208 616 -275 152
-68 296 -132 320 -143 333 -150 588 -263 689 -307 41 -18 122 -54 180 -80 243
-108 486 -215 655 -286 83 -35 153 -67 156 -72 7 -10 29 -1 29 12 0 5 -8 11
-17 14 -10 3 -74 31 -143 62 -69 32 -197 89 -285 128 -179 79 -233 102 -630
280 -154 69 -388 173 -520 232 -132 59 -265 118 -295 132 -30 14 -161 72 -290
130 -129 58 -260 116 -290 130 -47 22 -215 97 -715 320 -55 25 -154 69 -220
98 -66 29 -156 69 -200 90 -44 20 -114 52 -155 70 -41 18 -203 90 -360 160
-692 309 -831 371 -1232 544 -259 111 -301 124 -353 101z"/>
<path d="M11724 12652 c8 -13 109 -66 177 -92 26 -11 100 -44 165 -75 66 -31
128 -60 139 -65 11 -5 61 -27 110 -50 50 -23 104 -48 120 -55 77 -35 145 -65
195 -88 30 -14 78 -35 105 -47 28 -12 88 -40 135 -62 47 -22 111 -51 143 -64
32 -14 86 -39 120 -55 34 -17 82 -39 107 -49 62 -25 267 -121 335 -157 11 -6
42 -21 69 -33 43 -20 47 -25 30 -32 -15 -7 -14 -8 8 -5 15 2 25 1 23 -3 -2 -4
9 -25 25 -46 32 -42 42 -114 17 -114 -7 0 -26 -18 -43 -40 -16 -22 -38 -40
-49 -40 -17 0 -17 -2 -5 -10 13 -8 12 -10 -5 -11 -14 -1 -10 -4 10 -9 21 -5 2
-8 -61 -9 -68 -1 -95 -5 -104 -16 -7 -8 -9 -15 -5 -15 5 0 0 -9 -10 -20 -10
-11 -13 -20 -7 -20 6 0 13 6 16 13 3 6 4 -1 1 -18 l-5 -30 27 33 28 32 303 0
c259 0 311 3 362 18 50 14 60 21 60 40 0 23 14 30 25 12 3 -5 14 -10 23 -10
21 0 119 -40 367 -150 22 -9 55 -23 73 -30 19 -7 40 -20 48 -28 8 -8 18 -12
21 -9 9 9 -19 32 -62 52 -22 11 -55 36 -73 57 -19 21 -40 38 -48 38 -10 0 -14
14 -14 51 l0 52 -32 -7 c-21 -4 -28 -3 -19 3 10 6 6 11 -15 19 -28 10 -28 10
-4 11 22 1 21 3 -13 20 -20 10 -56 22 -80 25 -41 6 -97 35 -70 36 6 0 15 -4
18 -10 3 -5 14 -10 23 -10 10 0 5 6 -13 15 -89 43 -287 135 -290 135 -2 0 -41
17 -87 39 -45 21 -141 65 -213 96 -71 32 -162 73 -202 91 -39 19 -73 34 -76
34 -3 0 -45 19 -94 41 -132 62 -173 79 -173 72 0 -3 -8 0 -17 9 -10 8 -88 45
-173 82 -154 68 -182 80 -333 150 -43 20 -80 36 -82 36 -2 0 -37 16 -79 36
-51 23 -84 33 -99 29 -14 -4 -17 -3 -10 2 16 12 -61 48 -78 37 -7 -4 -10 -3
-7 2 3 5 -14 19 -38 32 l-44 22 0 -21 c0 -17 3 -19 13 -10 8 6 17 8 20 4 13
-13 7 -23 -15 -24 -13 0 -17 -3 -10 -6 14 -6 16 -33 2 -33 -5 0 -10 5 -10 11
0 8 -17 10 -49 7 -29 -3 -58 0 -72 8 -13 7 -37 10 -54 7 -21 -3 -26 -2 -16 5
22 15 -23 35 -61 27 -19 -5 -28 -3 -24 3 7 12 -30 46 -43 38 -5 -4 -12 -2 -16
4 -3 5 -17 10 -30 10 -13 0 -31 3 -40 6 -13 6 -14 9 -3 16 8 5 4 6 -13 3 -21
-5 -27 -2 -32 14 -5 22 -27 29 -27 9 0 -7 -6 -6 -17 4 -10 9 -29 18 -43 20
-14 3 -34 9 -44 13 -13 6 -17 5 -12 -3z"/>
<path d="M8508 12633 c-10 -2 -18 -11 -18 -19 0 -10 -13 -14 -45 -14 -25 0
-44 -3 -44 -7 4 -23 -3 -30 -25 -26 -18 4 -26 0 -31 -16 -6 -21 -25 -29 -25
-11 0 19 -22 10 -27 -11 -4 -16 -11 -19 -29 -15 -13 4 -23 3 -22 -1 4 -10 -12
-12 -30 -5 -19 7 -29 -8 -12 -19 11 -8 8 -9 -13 -4 -26 5 -28 4 -22 -17 4 -17
4 -19 -3 -9 -8 12 -15 10 -37 -7 -19 -15 -36 -20 -58 -16 -25 3 -27 2 -12 -5
18 -8 17 -10 -15 -23 -19 -8 -36 -11 -38 -7 -4 9 -70 -19 -90 -38 -7 -6 -44
-15 -82 -19 -49 -5 -70 -11 -70 -20 0 -10 -13 -14 -40 -14 -29 0 -40 -4 -40
-15 0 -11 -11 -15 -40 -15 -22 0 -40 -4 -40 -10 0 -5 -18 -10 -40 -10 -30 0
-40 4 -40 16 0 11 -6 14 -22 8 -13 -3 -20 -3 -16 1 4 4 29 9 55 11 32 2 43 0
33 -6 -12 -8 -10 -10 8 -10 36 0 26 28 -14 39 -30 8 -43 7 -73 -8 -74 -38
-118 -59 -173 -81 -32 -12 -58 -26 -58 -31 0 -5 -6 -9 -12 -9 -27 0 -137 -53
-131 -63 3 -6 1 -7 -5 -3 -10 6 -45 -6 -137 -49 -16 -8 -104 -48 -195 -89
-317 -143 -546 -248 -637 -292 -50 -24 -95 -44 -98 -44 -16 0 -255 -123 -255
-131 0 -5 -10 -8 -22 -7 -13 0 -50 -11 -83 -26 -47 -21 -57 -29 -45 -37 11 -8
8 -9 -15 -5 -16 3 -24 3 -17 0 23 -11 12 -23 -30 -32 -24 -6 -35 -10 -25 -11
28 -2 15 -25 -19 -35 -16 -5 -38 -13 -49 -17 -16 -8 -15 -8 8 -4 15 3 27 1 27
-5 0 -5 -15 -11 -32 -11 l-33 -2 32 -6 32 -6 -36 -39 c-27 -29 -37 -35 -44
-25 -4 7 -11 10 -15 6 -4 -4 1 -14 12 -22 10 -9 15 -14 9 -14 -29 6 -96 -43
-81 -58 3 -3 6 -1 6 5 0 7 7 12 15 12 9 0 45 14 80 30 35 17 69 30 75 30 5 0
10 4 10 10 0 5 19 14 41 20 23 7 69 25 103 41 34 17 104 48 156 70 52 22 131
56 175 76 99 44 130 57 178 74 20 7 37 17 37 21 0 4 7 8 15 8 9 0 30 7 46 16
32 16 54 11 29 -7 -11 -8 -7 -9 15 -4 37 8 57 24 51 40 -3 8 2 11 15 8 13 -4
28 4 44 21 13 14 32 26 42 25 16 0 16 -1 -2 -9 -22 -10 -5 -13 19 -4 8 3 12
12 9 21 -5 12 1 13 33 7 34 -6 37 -5 27 8 -11 13 -6 18 31 38 25 12 50 19 57
15 7 -5 10 -4 6 2 -4 6 18 22 51 38 31 15 116 56 189 91 73 35 135 64 138 64
3 0 72 32 153 71 81 39 165 79 187 89 22 10 70 32 108 49 86 40 191 88 242
111 22 11 52 22 68 25 15 4 27 10 27 14 0 3 15 12 33 20 17 7 55 24 82 36 28
13 82 37 120 55 185 83 212 96 245 116 19 12 46 25 60 29 14 4 59 24 100 44
41 19 79 34 83 33 5 -1 6 2 2 8 -6 10 -26 11 -57 3z"/>
<path d="M12387 11624 c-11 -12 3 -23 21 -17 9 3 14 2 10 -2 -10 -10 5 -20
117 -80 50 -26 103 -57 119 -68 29 -21 150 -40 174 -27 14 7 -76 51 -281 139
-133 57 -151 63 -160 55z"/>
<path d="M6355 11430 c-36 -37 -45 -41 -85 -40 -25 1 -62 1 -82 1 l-38 -1 0
-89 c0 -68 3 -90 14 -94 20 -8 29 22 24 86 l-3 52 410 6 c226 3 412 6 414 7 3
1 -1 8 -7 15 -9 8 -57 13 -147 15 -92 3 -133 7 -128 15 3 6 1 7 -5 3 -7 -4
-22 0 -34 8 -14 10 -44 16 -75 16 -29 0 -53 5 -53 10 0 6 -33 10 -79 10 -46 0
-81 4 -83 10 -2 6 -21 -8 -43 -30z"/>
<path d="M12865 11400 c-4 -6 -11 -7 -17 -4 -11 7 0 -565 12 -581 4 -5 13 -27
19 -47 l12 -38 42 25 c23 14 51 29 62 34 20 9 49 39 143 148 56 66 61 75 36
71 -32 -6 -25 20 21 73 105 124 195 239 195 248 0 6 -7 8 -15 5 -8 -4 -12 -10
-9 -15 3 -5 -2 -6 -11 -3 -9 4 -24 -1 -35 -11 -11 -10 -24 -14 -31 -9 -8 5
-11 2 -7 -7 4 -10 -4 -15 -30 -17 -52 -3 -72 4 -309 114 -57 27 -69 29 -78 14z"/>
<path d="M14154 11328 c-38 -40 -135 -140 -215 -223 -80 -82 -192 -198 -249
-257 -59 -62 -111 -108 -122 -108 -17 0 -17 -2 -4 -27 8 -16 22 -37 31 -48 16
-20 16 -20 12 3 -3 12 -3 22 -1 22 7 0 52 -87 64 -125 15 -45 51 -105 64 -105
5 0 3 6 -3 13 -6 8 -8 17 -4 20 3 4 7 28 8 55 3 82 28 212 40 212 7 0 22 23
33 50 12 28 26 50 33 50 6 0 9 6 6 13 -4 11 6 11 59 1 35 -6 64 -8 64 -3 0 5
-13 18 -30 30 -16 12 -31 28 -34 35 -5 12 113 144 128 144 8 0 40 29 115 101
34 32 68 59 76 59 21 0 20 63 -1 98 -13 22 -13 24 -1 8 15 -17 16 -16 15 13
-1 18 -4 34 -8 36 -5 3 -39 -27 -76 -67z"/>
<path d="M11901 11352 l-25 -37 3 -832 3 -833 -224 0 -224 0 -34 48 c-18 26
-103 148 -188 272 -85 124 -171 243 -191 266 -148 167 -326 353 -331 347 -4
-5 -19 -66 -34 -138 -25 -126 -26 -141 -26 -462 l0 -333 -203 0 -204 0 -6 413
c-4 226 -8 507 -8 622 -1 119 -5 197 -9 180 l-8 -30 -2 35 c-1 28 -3 31 -9 15
-5 -11 -10 41 -14 125 -5 131 -4 147 13 162 10 9 21 14 24 11 3 -4 6 7 6 23 0
17 -3 24 -8 17 -5 -8 -13 -5 -27 11 l-20 23 -17 -22 c-28 -36 -48 -109 -58
-213 -16 -170 -49 -405 -65 -457 -19 -61 -62 -144 -86 -168 -17 -16 -21 -16
-49 -2 -17 9 -34 13 -39 11 -11 -7 -34 20 -38 43 -1 9 -11 22 -22 30 -12 7
-21 20 -21 27 0 8 -4 14 -8 14 -5 0 -17 18 -27 40 -10 22 -24 40 -32 40 -7 0
-13 8 -13 18 0 10 -4 22 -9 27 -17 18 -91 165 -91 180 0 8 -3 15 -8 15 -4 0
-16 16 -26 35 -11 19 -23 35 -28 35 -4 0 -8 10 -8 23 0 13 -4 27 -9 32 -4 6
-16 34 -27 63 -10 28 -21 52 -24 52 -4 0 -15 18 -25 40 -10 22 -22 37 -26 34
-5 -3 -7 1 -4 8 5 16 -22 54 -32 44 -4 -3 3 -35 15 -69 12 -34 39 -113 61
-176 22 -62 43 -138 47 -168 4 -37 9 -50 15 -42 11 18 11 11 -1 -31 -11 -39
-7 -53 236 -704 74 -198 133 -360 131 -361 -1 -2 -105 -4 -231 -6 l-229 -4
-45 153 -45 152 -372 0 -371 0 -43 -137 c-23 -76 -45 -146 -47 -155 -5 -17
-25 -18 -231 -18 -210 0 -225 1 -218 18 3 9 36 96 71 192 36 96 80 213 99 260
42 107 187 494 232 618 32 91 41 130 25 106 -4 -6 -14 -13 -23 -16 -16 -6 -71
-112 -82 -159 -4 -14 -20 -40 -37 -57 -33 -35 -38 -47 -15 -38 26 10 16 -11
-12 -25 -18 -9 -29 -23 -31 -39 -1 -14 -7 -26 -12 -28 -6 -2 -10 -10 -10 -18
0 -8 -7 -14 -15 -14 -8 0 -15 -6 -15 -13 0 -8 -11 -24 -25 -37 -13 -12 -22
-26 -20 -30 2 -4 -16 -17 -41 -30 -42 -20 -50 -21 -88 -10 -56 17 -60 20 -106
114 -38 79 -40 87 -44 200 -5 117 -21 253 -36 291 -4 11 -12 31 -18 45 -6 14
-16 39 -23 56 -9 22 -18 30 -28 26 -10 -4 -13 -1 -9 9 3 9 -7 30 -23 49 -16
18 -29 37 -29 43 0 6 -2 8 -5 5 -3 -2 4 -31 15 -63 24 -70 25 -85 4 -85 -15 0
-15 -2 0 -25 17 -26 21 -91 7 -114 -7 -11 -13 -5 -25 24 -9 20 -16 42 -16 47
0 5 -4 6 -10 3 -5 -3 -10 -14 -10 -24 0 -28 -45 -165 -64 -193 -9 -13 -34 -35
-57 -47 -39 -23 -40 -23 -20 -38 36 -25 25 -43 -53 -84 l-38 -21 23 -16 c13
-8 41 -30 62 -49 37 -33 70 -42 82 -23 3 6 12 10 19 10 16 0 106 -78 106 -91
0 -6 -4 -8 -9 -5 -5 4 -16 3 -25 0 -14 -6 -14 -9 1 -35 9 -15 21 -25 26 -22 6
3 7 1 3 -5 -4 -6 -2 -21 5 -33 13 -25 33 -199 32 -276 -1 -66 -16 -110 -54
-163 -28 -38 -32 -40 -43 -25 -12 16 -14 15 -33 -9 -31 -39 -116 -93 -176
-110 -144 -42 -244 -49 -784 -53 -310 -3 -523 -8 -523 -14 0 -5 -6 -9 -12 -9
-10 0 -14 71 -17 313 -1 171 -4 313 -6 315 -2 2 -6 -56 -10 -128 -5 -79 -11
-126 -16 -118 -6 9 -9 7 -9 -9 0 -17 -6 -23 -22 -24 -16 0 -18 -2 -8 -6 32
-12 40 -54 15 -79 -8 -8 -17 -31 -21 -52 -11 -66 -35 -142 -45 -142 -5 0 -9
-9 -9 -20 0 -14 -7 -20 -22 -20 -17 0 -19 -3 -10 -9 11 -6 7 -13 -14 -30 l-27
-21 114 -1 c363 -3 5732 19 7289 29 l965 7 -40 25 -40 25 -285 0 -284 0 -66
125 c-36 69 -105 190 -153 269 -52 85 -87 153 -85 165 2 16 -2 21 -17 19 -11
-1 -22 1 -25 5 -3 4 -28 28 -56 55 l-50 47 -62 -21 c-57 -19 -72 -31 -172
-137 l-110 -117 0 -207 0 -208 -223 0 -224 0 -6 167 c-4 91 -7 437 -7 767 0
565 -5 736 -19 736 -3 0 -5 -21 -4 -47 l1 -48 -6 45 c-6 39 -10 45 -29 42 -20
-3 -23 1 -23 34 l0 38 -20 -39 c-11 -22 -20 -47 -20 -57 0 -10 -4 -17 -9 -15
-5 1 -31 -19 -58 -44 -27 -25 -63 -54 -80 -64 -30 -17 -32 -17 -77 1 -25 10
-46 26 -47 34 0 10 -3 8 -9 -5 -7 -17 -9 -16 -10 10 -1 17 -4 24 -7 17 -4 -10
-8 -10 -19 -1 -8 6 -15 8 -16 3 -1 -5 -4 28 -7 73 l-6 82 -24 -37z"/>
<path d="M11371 11319 c-1 -22 -9 -43 -21 -54 -17 -16 -42 -53 -100 -153 -22
-38 -41 -58 -81 -85 l-37 -25 -53 18 c-29 10 -55 23 -57 29 -2 6 -14 11 -27
11 -12 0 -25 7 -29 15 -3 8 -12 12 -21 9 -9 -4 -15 -1 -15 9 0 8 -7 20 -15 27
-25 21 -17 2 26 -62 38 -55 40 -62 25 -73 -20 -15 -21 -26 -1 -19 8 4 15 1 15
-5 0 -6 -5 -11 -10 -11 -6 0 -3 -11 6 -25 9 -14 21 -22 27 -18 5 3 7 1 3 -5
-3 -6 57 -105 134 -220 120 -180 147 -215 195 -247 30 -21 56 -36 58 -34 4 5
37 151 37 162 0 4 -6 7 -14 7 -8 0 -17 7 -20 16 -3 9 -7 172 -7 362 -1 191 -5
361 -9 377 l-8 30 -1 -36z"/>
<path d="M6696 11075 c-4 -14 -2 -34 4 -45 9 -17 8 -20 -12 -20 -38 0 -52 -15
-44 -46 4 -16 6 -33 6 -39 0 -5 -3 -75 -6 -154 l-6 -143 203 5 c112 2 220 9
240 16 62 19 103 53 132 110 54 107 29 232 -59 294 -38 27 -41 27 -109 17 -39
-5 -114 -10 -167 -10 -87 0 -98 2 -108 20 -16 31 -66 27 -74 -5z"/>
<path d="M8932 10889 c-24 -54 -89 -201 -147 -329 -62 -137 -74 -168 -96 -235
-26 -82 -25 -89 10 -82 19 4 33 1 41 -8 9 -11 53 -13 248 -8 130 3 238 7 239
8 4 2 -126 428 -135 445 -5 8 -31 56 -57 105 -27 50 -57 103 -66 119 l-18 30
-19 -45z"/>
<path d="M6648 10393 c11 -4 42 -54 42 -68 0 -3 -13 -5 -29 -5 l-29 0 -1 -205
-1 -205 214 0 c238 0 293 8 360 50 67 43 98 95 104 179 5 82 -8 129 -52 179
-58 66 -90 73 -294 66 -131 -5 -181 -4 -186 4 -4 7 -34 12 -74 11 -37 0 -61
-3 -54 -6z"/>
<path d="M12815 9430 c-830 -4 -3060 -13 -4955 -20 -1895 -6 -3638 -16 -3875
-20 -266 -5 261 -7 1385 -4 998 2 2891 9 4205 14 1315 6 3451 14 4748 19 1297
5 2361 11 2364 15 7 7 -1757 5 -3872 -4z"/>
<path d="M9120 8910 l-885 -5 1004 -3 c552 -1 1002 0 999 3 -9 9 -221 10
-1118 5z"/>
<path d="M12320 8900 c-795 -3 -1425 -8 -1400 -12 25 -4 221 -6 435 -4 215 3
1036 6 1825 8 789 1 1518 5 1620 9 219 6 -505 6 -2480 -1z"/>
<path d="M7954 8883 c8 -8 2597 -5 2605 3 2 2 -584 4 -1304 4 -720 0 -1305 -3
-1301 -7z"/>
<path d="M4948 8872 c-16 -6 1319 -6 1927 1 138 1 -236 3 -830 4 -594 1 -1088
-1 -1097 -5z"/>
<path d="M11018 8745 c-2 -3 -546 -6 -1209 -7 -662 0 -1413 -4 -1669 -8 l-465
-6 428 -2 427 -2 0 -69 0 -68 -82 -6 c-46 -4 -105 -7 -133 -8 l-50 -1 50 -12
c28 -6 55 -14 62 -19 6 -4 19 -4 30 -1 16 6 16 5 -2 -9 -20 -16 -19 -16 4 -10
20 5 23 3 18 -10 -4 -10 -1 -17 6 -17 10 0 13 -24 11 -92 0 -60 0 -69 3 -25 5
79 26 93 37 25 6 -38 -3 -4283 -9 -4478 -1 -41 -4 -128 -5 -192 -2 -98 -5
-116 -16 -107 -8 6 -14 8 -14 4 0 -4 -7 -1 -16 6 -14 12 -16 11 -13 -6 3 -11
11 -20 19 -21 8 -1 18 -2 22 -2 5 -1 -1 -24 -11 -52 l-19 -50 29 -1 c16 -1 35
-2 42 -3 9 -1 12 -57 12 -243 l0 -242 23 -4 c12 -2 22 -1 22 3 0 11 83 -11 92
-23 3 -6 27 -7 56 -4 35 4 52 2 55 -6 3 -9 109 -13 428 -14 233 -1 710 -4
1059 -7 405 -3 637 -1 641 5 3 6 116 11 280 12 151 1 277 6 281 11 3 5 41 11
85 14 l78 4 -2 229 c-2 196 0 229 12 229 8 0 15 5 15 10 0 6 26 10 58 10 l57
0 -30 15 c-17 9 -31 23 -32 33 -1 9 -4 27 -8 39 -6 18 -2 25 16 31 24 9 24 9
2 16 -19 6 -22 16 -27 109 -12 223 -23 4703 -11 4715 9 9 18 -6 26 -45 6 -29
7 -21 5 34 -4 79 3 99 29 89 15 -5 16 -4 5 9 -10 13 -9 15 8 15 12 0 23 4 26
9 4 5 30 13 59 17 l52 8 -65 8 c-36 4 -99 7 -140 6 l-75 -1 -3 71 -3 72 496 0
c272 0 495 3 495 8 0 7 -1544 15 -1552 7z m-1814 -821 c15 -6 16 -151 16
-1548 0 -1464 -8 -2383 -20 -2306 -6 42 -12 34 -35 -45 -9 -32 -24 -65 -33
-72 -10 -7 -38 -12 -64 -11 l-48 2 0 143 0 143 -39 0 c-40 0 -40 0 -47 46 -4
26 -5 854 -2 1841 4 1541 6 1796 19 1804 16 10 228 12 253 3z m920 -25 c3 -17
6 -481 6 -1030 l0 -999 -410 0 -410 0 0 1023 c0 563 3 1027 7 1030 3 4 185 7
403 7 l398 0 6 -31z m924 -1001 l2 -1028 -420 0 -420 0 0 1030 0 1030 418 -2
417 -3 3 -1027z m345 95 c9 -1184 9 -2701 1 -2742 -6 -27 -10 -31 -40 -31
l-34 0 0 -139 c0 -83 -4 -142 -10 -146 -5 -3 -11 2 -11 12 -1 13 -2 14 -5 3
-3 -11 -16 -14 -49 -12 -25 2 -45 8 -45 13 0 5 5 9 11 9 6 0 1 13 -10 29 -12
16 -21 37 -21 48 0 15 -2 16 -10 3 -8 -12 -10 -12 -10 5 0 11 -4 67 -9 125 -5
58 -12 927 -16 1933 l-7 1827 130 0 129 0 6 -937z m-1269 -1885 c-1 -370 -2
-780 -3 -910 l-1 -238 -22 -1 c-22 -1 -22 -1 2 -9 14 -4 -146 -8 -356 -9
l-381 -1 -2 47 c-2 66 -11 67 -12 2 l-2 -54 -8 45 c-4 25 -9 68 -10 95 -2 37
-4 26 -9 -40 -3 -49 -7 323 -8 828 l-2 917 408 0 408 0 -2 -672z m925 -240
c-1 -502 -5 -902 -9 -888 l-8 25 -7 -22 c-4 -13 -12 -23 -19 -24 -6 -1 0 -4
14 -8 17 -6 -6 -10 -75 -16 -113 -9 -702 -1 -713 10 -14 14 -20 325 -21 1068
l-1 767 420 0 420 0 -1 -912z"/>
<path d="M12610 8740 c-5 -3 -10 -36 -12 -74 -3 -62 -6 -71 -31 -90 -18 -13
-30 -17 -35 -10 -4 6 -45 11 -92 12 l-85 2 40 -15 c22 -8 45 -22 52 -32 7 -10
16 -22 20 -27 4 -5 7 -137 5 -292 l-3 -284 139 0 139 0 7 -502 c3 -277 8 -845
11 -1263 3 -418 8 -1010 11 -1315 3 -305 3 -572 -1 -592 -7 -36 -9 -37 -54
-40 l-46 -3 -3 -143 -3 -143 -52 7 c-65 8 -72 14 -21 15 21 1 31 3 21 6 -9 2
-15 8 -12 13 3 4 -7 15 -21 25 -18 12 -24 23 -21 37 4 12 2 17 -3 12 -5 -5
-10 -27 -12 -49 -2 -30 -6 -19 -12 43 -18 178 -36 59 -36 -239 0 -110 4 -199
8 -199 12 0 12 -82 0 -97 -14 -17 15 -18 42 -1 16 10 22 9 38 -7 52 -57 52
-56 52 -277 l0 -208 23 -5 c12 -3 54 -1 92 5 74 12 319 12 450 0 184 -18 237
-19 227 -7 -8 10 -27 349 -24 419 0 10 -3 20 -9 23 -5 4 -9 15 -9 26 0 19 4
20 58 14 57 -6 57 -6 34 12 -15 12 -22 29 -22 48 0 17 -4 62 -9 100 -17 124
-37 1349 -46 2775 -2 476 -8 997 -11 1159 -6 244 -4 295 7 302 8 5 9 9 3 9 -7
0 -10 65 -8 213 3 256 11 347 29 347 15 0 23 -45 28 -150 2 -38 4 -18 5 47 2
102 0 112 -17 118 -13 4 -17 12 -14 25 3 11 10 20 15 20 5 0 6 5 3 10 -3 6 1
10 9 10 9 0 16 4 16 10 0 5 12 12 28 16 67 15 61 19 -33 24 l-100 5 3 70 c2
39 7 72 12 73 32 12 -5 17 -115 17 -69 0 -117 -3 -107 -7 25 -10 3 -9 -82 3
-52 7 -100 7 -153 0 -44 -6 -127 -7 -191 -3 -63 4 -118 5 -122 2z"/>
<path d="M14383 8742 c14 -3 17 -16 17 -72 l0 -68 -40 -16 c-30 -12 -63 -15
-132 -11 -56 2 -81 1 -63 -4 74 -20 75 -21 75 -67 0 -24 -4 -44 -8 -44 -4 0
-7 -28 -6 -62 3 -94 13 -888 29 -2328 26 -2303 28 -2461 36 -2466 5 -3 9 -17
9 -32 0 -38 11 -72 22 -72 5 0 6 5 2 11 -9 15 68 -30 105 -61 l30 -25 7 -211
7 -210 56 8 c80 12 333 12 453 -1 187 -20 266 -27 275 -24 10 4 4 205 -6 213
-3 3 -7 47 -8 98 -1 54 -6 99 -13 107 -6 8 -9 19 -5 25 3 5 -1 13 -10 16 -11
5 -13 10 -5 19 6 8 29 11 63 8 l52 -4 -27 26 c-25 23 -34 43 -29 69 1 5 -3 12
-9 16 -7 5 -13 93 -18 261 -5 167 -9 230 -13 184 -5 -60 -6 -52 -7 52 -1 67 1
123 6 125 4 2 5 147 2 323 l-5 320 -8 -499 c-4 -275 -10 -502 -12 -505 -3 -2
-24 5 -46 17 -47 25 -59 27 -59 9 0 -6 -13 -18 -30 -25 -16 -8 -31 -21 -32
-30 0 -10 -4 6 -8 33 l-7 50 -2 -55 c-4 -99 -18 -23 -24 129 -4 104 -9 146
-19 152 -7 5 -45 19 -85 31 -48 15 -73 28 -76 40 -3 10 0 18 6 18 13 0 13 209
1 280 -11 60 -22 7 -25 -110 -5 -233 -34 1591 -43 2690 -4 572 -3 579 22 85 8
-150 9 -123 9 225 1 217 4 432 8 478 l8 82 168 0 c123 0 170 -3 176 -12 4 -7
10 -148 13 -313 6 -266 7 -282 10 -135 l4 165 6 -165 c3 -91 6 79 6 378 -1
298 2 542 5 542 3 0 4 11 1 25 -2 15 0 25 7 25 6 0 11 -12 11 -26 0 -14 4 -23
8 -20 11 7 22 -247 22 -496 0 -104 3 -188 8 -188 4 0 6 175 4 390 -3 369 -2
390 15 391 11 0 13 3 6 6 -7 2 -13 8 -13 13 0 15 96 54 150 61 45 5 34 7 -60
9 -158 3 -165 5 -166 60 0 24 1 54 4 67 l4 23 482 3 c264 2 79 3 -413 3 -492
-1 -887 -2 -878 -4z m327 -1942 c16 -1013 26 -2086 20 -2235 -5 -138 -13 278
-30 1585 -11 787 -13 1356 -6 1349 3 -2 10 -317 16 -699z"/>
<path d="M6744 8712 c9 -28 10 -131 2 -139 -4 -5 -65 -8 -134 -8 -110 1 -119
0 -67 -8 33 -5 65 -13 71 -18 6 -5 20 -7 30 -3 14 4 15 3 6 -4 -11 -7 -7 -12
15 -19 22 -8 29 -17 28 -36 0 -14 -3 -29 -7 -33 -5 -4 -7 -84 -6 -178 l2 -171
3 157 c3 141 5 159 22 167 10 6 21 7 25 4 3 -3 6 -104 6 -223 0 -120 3 -232 6
-249 l7 -31 85 0 85 0 -6 -922 c-4 -508 -10 -1323 -13 -1813 -5 -674 -9 -900
-19 -930 -10 -32 -22 -45 -59 -66 -66 -37 -70 -41 -67 -107 1 -32 -2 -69 -7
-82 l-10 -25 -7 27 c-4 15 -5 31 -2 35 3 5 2 27 -3 50 -4 23 -4 40 0 38 4 -3
10 6 12 20 3 13 2 22 -3 19 -4 -2 -10 15 -12 38 -4 42 -4 42 -3 -5 1 -26 -2
-47 -6 -47 -4 0 -9 48 -11 108 -1 59 -4 -48 -5 -238 -1 -190 -5 -355 -8 -367
-4 -14 -14 -23 -25 -23 -18 0 -19 16 -22 368 l-2 367 -3 -377 c-2 -364 -1
-376 17 -371 20 5 38 -12 22 -21 -5 -3 -7 -15 -4 -26 3 -11 0 -20 -6 -20 -6 0
-10 -5 -8 -12 1 -6 -7 -14 -18 -16 -11 -2 -24 -9 -30 -14 -7 -7 8 -9 47 -5 62
6 84 -6 53 -30 -11 -7 -14 -13 -8 -13 6 0 9 -12 7 -27 -2 -16 -6 -112 -9 -214
l-6 -186 390 1 391 1 1 150 c2 255 4 265 42 301 27 25 41 31 69 29 l36 -3 6
106 c11 204 18 569 12 599 -7 29 -9 30 -41 23 l-33 -8 -7 50 c-8 54 1 2308 11
3141 l7 497 43 0 44 0 1 203 c0 111 1 226 2 255 1 30 -1 56 -5 59 -15 8 -8 80
8 93 8 8 32 17 52 21 22 5 1 6 -53 3 -79 -5 -94 -3 -123 16 -33 21 -34 21 -30
88 l3 68 -65 -9 c-57 -8 -409 -3 -643 9 -71 3 -78 2 -73 -14z"/>
<path d="M4498 8713 l492 -3 0 -48 c0 -26 3 -57 6 -68 8 -30 -19 -36 -161 -36
l-120 0 97 -14 c54 -7 105 -19 113 -26 39 -32 45 -41 45 -59 0 -10 -6 -19 -13
-19 -8 0 -12 -15 -12 -42 0 -24 -4 -403 -8 -843 -5 -440 -7 -798 -4 -795 2 3
8 255 12 560 7 615 20 1043 30 1078 4 12 14 22 21 22 18 0 18 -76 10 -1150
l-4 -505 13 555 c11 495 13 516 10 198 -1 -199 1 -358 6 -358 5 0 10 154 11
343 1 188 3 367 4 397 1 30 3 130 5 222 3 150 5 167 21 171 17 5 18 -7 18
-178 l0 -182 38 -7 c20 -3 131 -6 246 -6 l208 0 -7 -1042 c-4 -574 -8 -1128
-10 -1233 -2 -104 -6 -437 -10 -740 -6 -456 -9 -639 -14 -697 -1 -3 -18 -12
-38 -18 -21 -6 -57 -18 -79 -26 l-42 -15 -7 -139 -7 -140 -57 0 c-40 0 -52 3
-41 10 52 33 -82 -18 -217 -84 l-53 -25 -2 497 c-1 406 -3 453 -8 260 -3 -130
-8 -239 -10 -242 -3 -2 -4 170 -4 382 l2 387 -9 -485 c-5 -267 -12 -585 -15
-707 l-6 -223 -25 0 -25 0 6 718 c4 394 11 962 16 1262 6 300 9 662 8 805 -1
299 -9 -93 -27 -1460 -6 -440 -14 -923 -18 -1074 l-6 -273 31 7 c36 7 41 -1
15 -21 -11 -8 -13 -13 -5 -14 39 -1 -23 -70 -65 -70 -15 -1 -15 -2 -3 -9 8 -5
39 -5 69 0 62 10 76 4 44 -18 -13 -9 -23 -24 -23 -35 0 -10 -4 -16 -10 -13 -5
3 -10 2 -10 -4 0 -5 6 -12 13 -14 9 -4 9 -8 0 -14 -7 -5 -12 -67 -15 -190 -3
-176 -2 -182 17 -185 11 -2 81 1 155 5 185 11 455 13 513 5 27 -4 54 -5 61 -2
10 4 14 53 15 206 1 111 4 205 7 209 10 17 120 73 144 74 22 0 26 6 33 50 11
64 23 728 36 2005 6 558 16 1404 22 1880 6 475 8 910 4 965 l-7 100 -36 1
c-21 1 -61 11 -90 24 l-52 22 0 62 0 61 -252 1 c-139 1 -530 4 -868 6 -338 2
-393 3 -122 1z"/>
<path d="M3458 2648 c-1 -175 -1 -169 -12 -186 -4 -7 -5 -16 -1 -20 4 -4 595
-11 1313 -16 947 -6 1309 -12 1314 -20 5 -7 55 -11 146 -12 76 -1 168 -4 204
-8 l67 -7 114 110 114 111 247 0 c135 0 246 3 246 8 0 4 15 23 33 42 41 44
111 130 106 130 -37 4 -998 10 -2276 15 l-1613 7 -2 -154z"/>
<path d="M12710 2755 c0 -10 100 -182 116 -199 17 -19 18 -19 24 -1 4 10 9 14
13 9 4 -7 26 -8 59 -3 64 9 359 11 409 3 30 -5 43 -17 89 -80 30 -41 69 -88
86 -105 l33 -32 238 2 c172 1 237 5 235 13 -2 8 356 9 1395 4 769 -4 1402 -4
1406 0 4 4 3 12 -2 18 -5 6 -11 84 -12 173 -2 89 -7 164 -11 168 -4 4 -670 11
-1480 15 -810 5 -1726 11 -2035 14 -310 3 -563 3 -563 1z"/>
<path d="M3414 2291 c-2 -2 -4 -14 -4 -27 0 -14 8 -24 23 -27 12 -3 519 -8
1127 -12 608 -3 1147 -8 1198 -10 l93 -4 37 34 37 34 -480 2 c-264 1 -828 5
-1253 8 -426 3 -776 4 -778 2z"/>
<path d="M14140 2228 c0 -8 14 -29 31 -46 26 -27 34 -30 47 -20 13 11 14 9 7
-12 -7 -23 -6 -24 7 -6 14 18 55 18 1311 17 l1297 -2 0 29 0 29 -1335 7 c-735
4 -1342 9 -1350 13 -9 3 -15 -1 -15 -9z"/>
<path d="M5412 1553 l3 -28 520 -7 c286 -3 1287 -11 2225 -17 938 -6 2360 -16
3160 -21 800 -6 1851 -11 2335 -13 l880 -2 3 26 3 26 -783 7 c-431 4 -1807 13
-3058 21 -1251 8 -2885 20 -3630 25 -745 5 -1424 10 -1508 10 l-153 0 3 -27z"/>
</g>
</svg>
